HIERARCHY
ROOT mixamorig:Hips
{
	OFFSET 0.000000 201.639420 0.000000
	CHANNELS 6 Xposition Yposition Zposition Xrotation Yrotation Zrotation
	JOINT mixamorig:Spine
	{
		OFFSET 0.006200 19.524994 -2.481800
		CHANNELS 3 Xrotation Yrotation Zrotation
		JOINT mixamorig:Spine1
		{
			OFFSET -0.000900 22.835007 -2.825400
			CHANNELS 3 Xrotation Yrotation Zrotation
			JOINT mixamorig:Spine2
			{
				OFFSET -0.020600 26.552490 -3.193300
				CHANNELS 3 Xrotation Yrotation Zrotation
				JOINT mixamorig:Neck
				{
					OFFSET -0.060000 30.701813 1.352200
					CHANNELS 3 Xrotation Yrotation Zrotation
					JOINT mixamorig:Head
					{
						OFFSET -0.087200 22.547607 3.670900
						CHANNELS 3 Xrotation Yrotation Zrotation
						JOINT mixamorig:HeadTop_End
						{
							OFFSET -0.830600 40.355194 7.893500
							CHANNELS 3 Xrotation Yrotation Zrotation
							End Site
							{
								OFFSET 0.000000 30.592346 0.000000
							}
						}
						JOINT mixamorig:RightEye
						{
							OFFSET -6.302100 18.118591 16.197100
							CHANNELS 3 Xrotation Yrotation Zrotation
							End Site
							{
								OFFSET 0.000000 30.592346 0.000000
							}
						}
						JOINT mixamorig:LeftEye
						{
							OFFSET 6.741500 18.382690 16.401899
							CHANNELS 3 Xrotation Yrotation Zrotation
							End Site
							{
								OFFSET 0.000000 30.592346 0.000000
							}
						}
					}
				}
				JOINT mixamorig:LeftShoulder
				{
					OFFSET 11.924900 18.230499 1.425400
					CHANNELS 3 Xrotation Yrotation Zrotation
					JOINT mixamorig:LeftArm
					{
						OFFSET 25.435989 -0.697632 -5.229300
						CHANNELS 3 Xrotation Yrotation Zrotation
						JOINT mixamorig:LeftForeArm
						{
							OFFSET 54.684776 0.000000 0.000000
							CHANNELS 3 Xrotation Yrotation Zrotation
							JOINT mixamorig:LeftHand
							{
								OFFSET 55.098175 0.000000 0.000000
								CHANNELS 3 Xrotation Yrotation Zrotation
								JOINT mixamorig:LeftHandMiddle1
								{
									OFFSET 23.369751 0.000000 0.000000
									CHANNELS 3 Xrotation Yrotation Zrotation
									JOINT mixamorig:LeftHandMiddle2
									{
										OFFSET 6.378677 0.000000 0.000000
										CHANNELS 3 Xrotation Yrotation Zrotation
										JOINT mixamorig:LeftHandMiddle3
										{
											OFFSET 6.148331 0.000000 0.000000
											CHANNELS 3 Xrotation Yrotation Zrotation
											JOINT mixamorig:LeftHandMiddle4
											{
												OFFSET 6.582504 0.000000 0.000000
												CHANNELS 3 Xrotation Yrotation Zrotation
												End Site
												{
													OFFSET -1.168900 6.395691 1.028606
												}
											}
										}
									}
								}
								JOINT mixamorig:LeftHandThumb1
								{
									OFFSET 7.235672 -3.848206 5.434273
									CHANNELS 3 Xrotation Yrotation Zrotation
									JOINT mixamorig:LeftHandThumb2
									{
										OFFSET 6.568451 -3.792297 3.792300
										CHANNELS 3 Xrotation Yrotation Zrotation
										JOINT mixamorig:LeftHandThumb3
										{
											OFFSET 6.063080 -3.500519 3.500518
											CHANNELS 3 Xrotation Yrotation Zrotation
											JOINT mixamorig:LeftHandThumb4
											{
												OFFSET 4.793182 -2.767334 2.767349
												CHANNELS 3 Xrotation Yrotation Zrotation
												End Site
												{
													OFFSET 0.101639 6.054260 1.275483
												}
											}
										}
									}
								}
								JOINT mixamorig:LeftHandIndex1
								{
									OFFSET 23.101074 -0.309540 4.992809
									CHANNELS 3 Xrotation Yrotation Zrotation
									JOINT mixamorig:LeftHandIndex2
									{
										OFFSET 6.226883 0.000000 0.000000
										CHANNELS 3 Xrotation Yrotation Zrotation
										JOINT mixamorig:LeftHandIndex3
										{
											OFFSET 6.094330 0.000000 0.000000
											CHANNELS 3 Xrotation Yrotation Zrotation
											JOINT mixamorig:LeftHandIndex4
											{
												OFFSET 5.482605 0.000000 0.000000
												CHANNELS 3 Xrotation Yrotation Zrotation
												End Site
												{
													OFFSET -1.427902 5.233032 0.797164
												}
											}
										}
									}
								}
								JOINT mixamorig:LeftHandRing1
								{
									OFFSET 22.299240 0.021149 -3.964172
									CHANNELS 3 Xrotation Yrotation Zrotation
									JOINT mixamorig:LeftHandRing2
									{
										OFFSET 6.321869 0.000000 0.000000
										CHANNELS 3 Xrotation Yrotation Zrotation
										JOINT mixamorig:LeftHandRing3
										{
											OFFSET 5.899796 0.000000 0.000000
											CHANNELS 3 Xrotation Yrotation Zrotation
											JOINT mixamorig:LeftHandRing4
											{
												OFFSET 6.517899 0.000000 0.000000
												CHANNELS 3 Xrotation Yrotation Zrotation
												End Site
												{
													OFFSET -1.637299 6.232208 0.980890
												}
											}
										}
									}
								}
								JOINT mixamorig:LeftHandPinky1
								{
									OFFSET 20.463791 -0.302338 -8.562233
									CHANNELS 3 Xrotation Yrotation Zrotation
									JOINT mixamorig:LeftHandPinky2
									{
										OFFSET 6.908646 0.000000 0.000000
										CHANNELS 3 Xrotation Yrotation Zrotation
										JOINT mixamorig:LeftHandPinky3
										{
											OFFSET 4.622849 0.000000 0.000000
											CHANNELS 3 Xrotation Yrotation Zrotation
											JOINT mixamorig:LeftHandPinky4
											{
												OFFSET 5.216080 0.000000 0.000000
												CHANNELS 3 Xrotation Yrotation Zrotation
												End Site
												{
													OFFSET -0.606308 5.116241 0.814926
												}
											}
										}
									}
								}
							}
						}
					}
				}
				JOINT mixamorig:RightShoulder
				{
					OFFSET -12.001300 18.284088 1.348900
					CHANNELS 3 Xrotation Yrotation Zrotation
					JOINT mixamorig:RightArm
					{
						OFFSET -25.308500 -0.751312 -5.164599
						CHANNELS 3 Xrotation Yrotation Zrotation
						JOINT mixamorig:RightForeArm
						{
							OFFSET -54.684429 0.000000 0.000000
							CHANNELS 3 Xrotation Yrotation Zrotation
							JOINT mixamorig:RightHand
							{
								OFFSET -55.150291 0.000000 0.000000
								CHANNELS 3 Xrotation Yrotation Zrotation
								JOINT mixamorig:RightHandMiddle1
								{
									OFFSET -23.317566 0.000000 0.000000
									CHANNELS 3 Xrotation Yrotation Zrotation
									JOINT mixamorig:RightHandMiddle2
									{
										OFFSET -6.378403 0.000000 0.000000
										CHANNELS 3 Xrotation Yrotation Zrotation
										JOINT mixamorig:RightHandMiddle3
										{
											OFFSET -6.148193 0.000000 0.000000
											CHANNELS 3 Xrotation Yrotation Zrotation
											JOINT mixamorig:RightHandMiddle4
											{
												OFFSET -6.583389 0.000000 0.000000
												CHANNELS 3 Xrotation Yrotation Zrotation
												End Site
												{
													OFFSET 1.171692 6.395905 1.029786
												}
											}
										}
									}
								}
								JOINT mixamorig:RightHandThumb1
								{
									OFFSET -7.190521 -3.860474 5.435846
									CHANNELS 3 Xrotation Yrotation Zrotation
									JOINT mixamorig:RightHandThumb2
									{
										OFFSET -6.567429 -3.791718 3.791708
										CHANNELS 3 Xrotation Yrotation Zrotation
										JOINT mixamorig:RightHandThumb3
										{
											OFFSET -6.062469 -3.500153 3.500166
											CHANNELS 3 Xrotation Yrotation Zrotation
											JOINT mixamorig:RightHandThumb4
											{
												OFFSET -4.792618 -2.767029 2.767022
												CHANNELS 3 Xrotation Yrotation Zrotation
												End Site
												{
													OFFSET -0.100327 6.053253 1.276754
												}
											}
										}
									}
								}
								JOINT mixamorig:RightHandIndex1
								{
									OFFSET -23.048981 -0.310791 4.992554
									CHANNELS 3 Xrotation Yrotation Zrotation
									JOINT mixamorig:RightHandIndex2
									{
										OFFSET -6.227539 0.000000 0.000000
										CHANNELS 3 Xrotation Yrotation Zrotation
										JOINT mixamorig:RightHandIndex3
										{
											OFFSET -6.095047 0.000000 0.000000
											CHANNELS 3 Xrotation Yrotation Zrotation
											JOINT mixamorig:RightHandIndex4
											{
												OFFSET -5.484772 0.000000 0.000000
												CHANNELS 3 Xrotation Yrotation Zrotation
												End Site
												{
													OFFSET 1.420593 5.237305 0.797056
												}
											}
										}
									}
								}
								JOINT mixamorig:RightHandRing1
								{
									OFFSET -22.246323 0.020569 -3.963762
									CHANNELS 3 Xrotation Yrotation Zrotation
									JOINT mixamorig:RightHandRing2
									{
										OFFSET -6.322128 0.000000 0.000000
										CHANNELS 3 Xrotation Yrotation Zrotation
										JOINT mixamorig:RightHandRing3
										{
											OFFSET -5.900024 0.000000 0.000000
											CHANNELS 3 Xrotation Yrotation Zrotation
											JOINT mixamorig:RightHandRing4
											{
												OFFSET -6.518356 0.000000 0.000000
												CHANNELS 3 Xrotation Yrotation Zrotation
												End Site
												{
													OFFSET 1.636398 6.232697 0.982186
												}
											}
										}
									}
								}
								JOINT mixamorig:RightHandPinky1
								{
									OFFSET -20.411011 -0.303314 -8.561701
									CHANNELS 3 Xrotation Yrotation Zrotation
									JOINT mixamorig:RightHandPinky2
									{
										OFFSET -6.907349 0.000000 0.000000
										CHANNELS 3 Xrotation Yrotation Zrotation
										JOINT mixamorig:RightHandPinky3
										{
											OFFSET -4.623840 0.000000 0.000000
											CHANNELS 3 Xrotation Yrotation Zrotation
											JOINT mixamorig:RightHandPinky4
											{
												OFFSET -5.218353 0.000000 0.000000
												CHANNELS 3 Xrotation Yrotation Zrotation
												End Site
												{
													OFFSET 0.602097 5.118835 0.816273
												}
											}
										}
									}
								}
							}
						}
					}
				}
			}
		}
	}
	JOINT mixamorig:LeftUpLeg
	{
		OFFSET 18.168400 -13.561905 -0.039000
		CHANNELS 3 Xrotation Yrotation Zrotation
		JOINT mixamorig:LeftLeg
		{
			OFFSET 0.577358 -80.825211 -3.695000
			CHANNELS 3 Xrotation Yrotation Zrotation
			JOINT mixamorig:LeftFoot
			{
				OFFSET -0.577356 -83.370262 -6.520700
				CHANNELS 3 Xrotation Yrotation Zrotation
				JOINT mixamorig:LeftToeBase
				{
					OFFSET 0.750401 -20.798306 25.135401
					CHANNELS 3 Xrotation Yrotation Zrotation
					JOINT mixamorig:LeftToe_End
					{
						OFFSET -0.000500 0.001200 19.917799
						CHANNELS 3 Xrotation Yrotation Zrotation
						End Site
						{
							OFFSET 0.000000 19.917805 0.000000
						}
					}
				}
			}
		}
	}
	JOINT mixamorig:RightUpLeg
	{
		OFFSET -18.162500 -13.585098 -0.041000
		CHANNELS 3 Xrotation Yrotation Zrotation
		JOINT mixamorig:RightLeg
		{
			OFFSET -0.595024 -80.945297 -3.631900
			CHANNELS 3 Xrotation Yrotation Zrotation
			JOINT mixamorig:RightFoot
			{
				OFFSET 0.595024 -83.218193 -6.561200
				CHANNELS 3 Xrotation Yrotation Zrotation
				JOINT mixamorig:RightToeBase
				{
					OFFSET -0.753601 -20.807106 25.115000
					CHANNELS 3 Xrotation Yrotation Zrotation
					JOINT mixamorig:RightToe_End
					{
						OFFSET 0.000299 0.001700 19.918200
						CHANNELS 3 Xrotation Yrotation Zrotation
						End Site
						{
							OFFSET 0.000000 19.918203 0.000000
						}
					}
				}
			}
		}
	}
}
MOTION
Frames: 6
Frame Time: 0.033333
7.040894 217.103989 -30.430565 -70.809486 44.267925 47.198694 0.963264 3.688063 4.160121 1.784117 6.255541 7.350912 1.784114 6.255533 7.350907 0.957290 -17.801841 13.026375 32.531863 -45.515961 5.684734 -0.000000 0.000001 -0.000000 -0.000000 0.000001 -0.000000 -0.000000 0.000001 -0.000000 0.419819 2.298253 -5.177008 25.059032 1.953169 5.233390 -0.044115 -108.280089 -0.042239 -91.743668 -14.486954 11.517854 -0.783651 2.595022 -12.461060 -0.071271 -0.389992 -12.195044 0.000014 0.000005 0.000006 -0.000001 0.000000 0.000001 -6.286783 -0.818973 10.820987 -0.647331 5.164714 4.966079 -0.000003 0.000003 -0.000007 0.000002 0.000001 0.000000 -1.526337 1.130080 -10.693995 0.224693 1.696107 -18.154626 0.000004 0.000003 -0.000000 -0.000000 0.000000 0.000001 1.736022 7.661863 -15.595654 -0.295264 -0.721778 -18.846087 -0.000001 -0.000005 -0.000007 0.000001 -0.000000 0.000002 3.971327 13.083797 -13.806338 -0.663682 -3.508122 -20.442524 -0.000003 -0.000005 -0.000000 -0.000001 0.000001 0.000001 -0.252683 10.907824 24.569693 24.473032 40.628762 14.030610 -0.033594 110.142299 0.031870 -18.762885 0.107396 -58.735474 -0.071910 -2.437676 12.492319 -0.087677 0.543772 12.189226 0.000000 -0.000013 -0.000001 0.000001 -0.000001 -0.000000 -6.290438 0.817691 -10.818981 -0.647653 -5.164378 -4.966403 -0.000024 -0.000005 0.000006 0.000000 0.000001 0.000001 0.097416 -0.894078 11.779932 0.124729 -1.116923 17.135210 0.000003 -0.000008 -0.000001 0.000001 0.000001 -0.000002 -0.186227 -8.188578 15.330595 -0.189327 0.083406 18.859228 -0.000002 0.000003 -0.000002 0.000001 0.000005 0.000001 -0.219439 -14.048342 12.822886 -0.402103 2.038873 20.632499 -0.000008 -0.000003 0.000004 -0.000003 0.000002 0.000000 -112.982250 -27.658151 6.075269 115.836279 -2.579118 -2.516841 30.980601 9.251636 -22.548787 -0.000001 -0.000001 -0.000001 -0.000000 -0.000000 -0.000001 -104.113619 -20.208411 18.688333 109.036785 2.744204 2.315228 29.739607 -13.983052 23.562411 0.000006 0.000005 0.000014 0.000000 0.000000 0.000001 
7.380089 217.892899 -27.306427 -70.867270 44.240867 46.870677 1.209392 3.693103 4.250915 2.274776 6.255834 7.491893 2.274777 6.255808 7.491884 -0.701685 -18.418397 12.284898 32.213300 -44.704210 5.582761 -0.000000 -0.000001 -0.000000 -0.000000 -0.000001 -0.000000 -0.000000 -0.000001 -0.000000 0.443905 2.282073 -5.427609 24.979598 3.620551 4.635041 -0.034577 -108.747478 -0.033084 -92.753525 -14.953748 10.429815 -0.776037 2.629767 -12.367566 -0.070315 -0.385457 -12.108624 0.000015 0.000008 0.000003 -0.000001 0.000002 0.000004 -6.286792 -0.818981 10.820974 -0.646911 5.131451 4.930804 -0.000005 0.000001 -0.000007 -0.000002 -0.000000 0.000001 -1.563527 1.184486 -10.603878 0.224702 1.686345 -18.036108 0.000004 0.000003 -0.000005 -0.000002 -0.000001 -0.000002 1.730720 7.650344 -15.484449 -0.290893 -0.708874 -18.710185 -0.000000 -0.000001 -0.000002 0.000001 -0.000001 -0.000002 3.979835 13.029935 -13.724341 -0.654205 -3.482646 -20.294135 -0.000004 -0.000005 0.000001 0.000000 0.000001 -0.000005 -0.369965 10.643252 24.638439 25.460237 41.614775 14.241881 -0.044098 110.087138 0.041771 -16.888833 0.310907 -59.205760 -0.057208 -2.443750 12.423061 -0.087131 0.540349 12.133448 -0.000001 -0.000018 -0.000001 0.000003 0.000000 0.000002 -6.307804 0.844386 -10.836037 -0.639546 -5.136469 -4.920556 -0.000025 -0.000009 0.000007 -0.000001 -0.000006 -0.000000 0.099837 -0.905774 11.711603 0.133988 -1.147184 17.043699 0.000000 -0.000009 -0.000000 0.000001 0.000000 -0.000005 -0.188698 -8.173352 15.247397 -0.187257 0.077357 18.761215 -0.000002 0.000001 0.000000 -0.000001 -0.000002 -0.000000 -0.204640 -13.996656 12.765817 -0.398392 2.026553 20.515361 -0.000009 -0.000007 -0.000001 -0.000001 0.000001 0.000001 -112.426669 -29.070573 6.012522 116.030625 -2.525991 -2.511711 31.143094 8.338193 -23.358333 -0.425681 -0.039533 0.562740 -0.000000 0.000001 0.000000 -103.185191 -20.964948 19.085876 108.813328 2.714078 2.316013 29.865180 -14.644660 24.291986 0.004480 -0.169594 0.122607 -0.000001 -0.000001 0.000001 
7.638046 218.783554 -23.691406 -71.315788 43.992354 46.647559 1.504468 3.593866 4.356322 2.869764 6.036843 7.641383 2.869761 6.036851 7.641397 -2.256473 -18.947834 10.959629 32.409067 -43.786680 6.252321 -0.000000 -0.000001 -0.000000 -0.000000 -0.000001 -0.000000 -0.000000 -0.000001 -0.000000 0.411613 2.438080 -5.356689 25.505634 4.892713 3.453814 -0.026352 -108.913978 -0.025275 -92.329288 -15.279097 8.900272 -0.761015 2.726070 -12.176310 -0.068408 -0.376528 -11.937825 0.000015 0.000008 -0.000001 0.000001 -0.000000 -0.000001 -6.293534 -0.817421 10.836047 -0.653240 5.037581 4.845381 -0.000007 0.000001 -0.000008 0.000002 -0.000000 -0.000000 -1.680093 1.338111 -10.422303 0.226756 1.664453 -17.773332 0.000005 0.000000 -0.000005 0.000000 0.000000 -0.000002 1.717996 7.608756 -15.242809 -0.280897 -0.679131 -18.397456 -0.000000 -0.000003 0.000006 -0.000000 0.000001 0.000001 4.014132 12.864060 -13.568563 -0.632160 -3.422602 -19.945124 -0.000002 -0.000006 0.000006 0.000001 0.000000 0.000005 -0.416425 10.763400 24.040022 26.038228 42.657861 15.404175 -0.080470 109.439090 0.076237 -14.844979 1.197664 -59.381036 -0.015222 -2.461248 12.225783 -0.085545 0.530545 11.973762 0.000000 -0.000016 -0.000000 0.000002 -0.000000 0.000003 -6.357589 0.920762 -10.884794 -0.616345 -5.056479 -4.789412 -0.000024 -0.000003 0.000006 -0.000001 -0.000001 0.000000 0.106616 -0.939339 11.517545 0.159962 -1.233892 16.781879 0.000000 -0.000009 -0.000000 -0.000001 0.000002 -0.000002 -0.195543 -8.129688 15.009260 -0.181421 0.059928 18.480648 -0.000007 0.000002 -0.000004 -0.000002 -0.000002 0.000002 -0.161706 -13.848880 12.602449 -0.387892 1.991191 20.180089 -0.000008 -0.000002 -0.000001 -0.000002 0.000001 -0.000005 -111.512496 -30.716413 5.609787 116.030393 -2.461948 -2.507738 31.855654 7.773606 -22.489340 -1.158310 -0.330502 1.342973 -0.000000 0.000000 -0.000001 -101.629206 -21.878279 19.719453 108.258949 2.674218 2.320935 30.381894 -15.970575 25.595540 0.029517 -0.375155 0.274330 0.000000 0.000000 0.000001 
7.777519 219.679657 -19.612183 -72.150102 43.614723 46.464083 1.850890 3.384646 4.468010 3.570263 5.624106 7.819960 3.570268 5.624105 7.819960 -3.782969 -19.361740 9.506811 32.414357 -42.659729 6.760538 -0.000001 -0.000002 -0.000001 -0.000001 -0.000002 -0.000001 -0.000001 -0.000002 -0.000001 0.321558 2.763578 -4.943150 26.698421 5.635414 1.831902 -0.022209 -108.872669 -0.021352 -90.312791 -15.868577 7.664551 -0.746288 2.874023 -11.971255 -0.066503 -0.367488 -11.765224 0.000015 0.000007 0.000003 0.000001 -0.000001 -0.000002 -6.312833 -0.813028 10.878957 -0.672881 4.891076 4.730244 -0.000006 0.000001 -0.000007 0.000002 -0.000001 0.000000 -1.877430 1.577449 -10.231765 0.232678 1.637670 -17.455431 0.000003 0.000007 -0.000003 0.000001 0.000002 -0.000003 1.701228 7.532109 -14.958683 -0.268487 -0.641270 -18.000576 -0.000000 -0.000002 0.000003 0.000000 -0.000001 -0.000001 4.080854 12.587551 -13.422311 -0.603989 -3.344158 -19.490237 -0.000002 -0.000005 0.000004 0.000000 -0.000001 -0.000002 -0.416549 10.965356 22.790181 26.332987 43.890983 17.035361 -0.137201 108.298981 0.130609 -12.870896 2.756886 -59.379827 0.050897 -2.489316 11.916288 -0.083094 0.515073 11.721757 0.000001 -0.000015 -0.000000 0.000000 -0.000001 0.000001 -6.436141 1.041383 -10.961516 -0.579810 -4.930001 -4.582638 -0.000024 -0.000003 0.000006 0.000001 -0.000004 0.000000 0.116812 -0.992523 11.214103 0.199218 -1.371291 16.368635 0.000003 -0.000006 -0.000002 -0.000000 -0.000001 0.000000 -0.205465 -8.060667 14.633557 -0.172327 0.032433 18.037870 -0.000002 0.000004 0.000002 -0.000000 0.000000 0.000002 -0.092147 -13.616111 12.344471 -0.371833 1.935252 19.650902 -0.000012 -0.000004 0.000001 0.000001 -0.000000 -0.000002 -110.315881 -32.834215 4.922546 115.880744 -2.364237 -2.502050 32.046749 7.149826 -21.896852 -1.088028 -0.593334 1.784392 -0.000000 0.000000 0.000000 -99.785075 -22.974760 20.408469 107.469605 2.617505 2.327804 31.287522 -17.174562 27.191401 0.148000 -0.395303 0.268645 0.000000 0.000000 -0.000001 
7.742050 220.467987 -15.186714 -73.185743 43.133068 46.122454 2.260714 3.129769 4.591622 4.398561 5.129996 8.031753 4.398576 5.129980 8.031739 -5.428531 -19.708258 8.523410 31.593306 -41.263826 6.155286 -0.000001 -0.000000 -0.000000 -0.000001 -0.000000 -0.000000 -0.000001 -0.000000 -0.000000 0.176161 3.257471 -4.218995 28.873624 5.417794 -0.412158 -0.018763 -108.481941 -0.018138 -87.027818 -17.221564 7.061266 -0.732477 3.067227 -11.754065 -0.064637 -0.358357 -11.591051 0.000014 0.000008 -0.000003 -0.000001 0.000000 -0.000003 -6.342990 -0.806125 10.946185 -0.704173 4.698494 4.589142 -0.000007 0.000003 -0.000007 0.000002 0.000000 0.000000 -2.146344 1.890920 -10.031532 0.242009 1.606657 -17.089275 0.000005 0.000003 -0.000001 -0.000001 -0.000000 -0.000001 1.681716 7.424715 -14.637492 -0.254087 -0.596249 -17.530034 -0.000000 -0.000003 0.000006 -0.000001 0.000001 0.000003 4.176605 12.214543 -13.283462 -0.570935 -3.249423 -18.942801 -0.000003 -0.000003 0.000004 -0.000001 0.000000 0.000001 -0.420061 10.750258 21.414805 27.252346 45.204422 18.092703 -0.214299 106.606993 0.205705 -10.855883 5.306333 -59.268652 0.137872 -2.527230 11.510345 -0.079973 0.494612 11.388959 0.000001 -0.000012 0.000002 0.000002 0.000003 -0.000001 -6.539937 1.200733 -11.062471 -0.531625 -4.762596 -4.309978 -0.000022 -0.000003 0.000006 -0.000002 -0.000001 0.000000 0.129370 -1.063159 10.817644 0.247881 -1.553660 15.823006 0.000002 -0.000008 -0.000001 -0.000000 0.000001 -0.000001 -0.216947 -7.969231 14.137627 -0.160669 -0.003976 17.453117 -0.000004 0.000005 0.000004 0.000000 -0.000000 0.000002 0.003064 -13.309686 12.003460 -0.351416 1.861260 18.952153 -0.000006 -0.000000 -0.000000 -0.000002 -0.000001 0.000000 -108.972130 -35.307177 4.123678 115.577360 -2.231821 -2.494800 32.007697 6.564491 -21.313149 -0.196358 -0.748314 1.848503 -0.000000 0.000000 -0.000001 -97.904997 -24.198670 21.023220 106.540542 2.546177 2.335095 32.424359 -17.608875 28.915223 0.347582 -0.201209 0.083743 0.000000 -0.000001 0.000001 
7.418602 221.042542 -10.582512 -74.204746 42.551928 45.470099 2.714163 2.884560 4.731646 5.312236 4.669718 8.291517 5.312250 4.669711 8.291513 -7.094799 -20.049404 8.107446 30.074194 -39.649395 4.486299 0.000001 -0.000002 0.000001 0.000001 -0.000002 0.000001 0.000001 -0.000002 0.000001 -0.009283 3.866628 -3.281940 28.972556 4.682304 -1.872637 -0.007729 -108.113145 -0.007680 -85.232380 -16.856878 6.924675 -0.720256 3.299212 -11.526333 -0.062760 -0.349157 -11.415560 0.000014 0.000007 0.000001 -0.000001 0.000000 -0.000000 -6.382613 -0.797172 11.034318 -0.745502 4.466374 4.425769 -0.000006 0.000001 -0.000008 0.000000 -0.000000 0.000000 -2.477739 2.266872 -9.820664 0.254454 1.572186 -16.681803 0.000004 0.000002 -0.000005 -0.000000 0.000000 -0.000004 1.660709 7.290803 -14.284629 -0.238192 -0.545040 -16.996412 -0.000001 -0.000003 0.000000 0.000001 -0.000002 -0.000000 4.297644 11.759115 -13.149650 -0.534153 -3.140568 -18.316023 -0.000003 -0.000005 0.000001 0.000000 -0.000001 0.000002 -0.451145 9.961891 20.322910 26.201943 47.041972 19.534778 -0.340824 105.073315 0.329428 -10.379524 6.743269 -58.288841 0.242424 -2.574380 11.023781 -0.076341 0.469867 10.986868 -0.000001 -0.000014 0.000000 0.000003 -0.000000 -0.000004 -6.665396 1.393356 -11.183801 -0.473573 -4.559756 -3.981231 -0.000024 -0.000003 0.000006 -0.000001 -0.000004 -0.000000 0.143134 -1.149017 10.344542 0.301765 -1.775270 15.163920 0.000001 -0.000007 -0.000001 -0.000000 0.000000 -0.000000 -0.228336 -7.858418 13.538845 -0.147081 -0.048124 16.746703 -0.000002 0.000005 0.000003 -0.000000 0.000001 -0.000002 0.123174 -12.940960 11.591073 -0.327989 1.771612 18.108042 -0.000006 0.000000 0.000002 -0.000003 -0.000003 0.000000 -107.613571 -37.787533 3.407555 115.150255 -2.082415 -2.486910 31.399667 6.247054 -20.400371 0.741915 -1.029493 1.967417 -0.000000 -0.000000 0.000001 -96.064944 -25.378567 21.512135 105.475169 2.462041 2.342675 33.574707 -17.272150 30.930375 0.525982 -0.072819 -0.042917 0.000000 -0.000001 -0.000001 
